<?xml version="1.0" encoding="UTF-8"?>
<svg width="28px" height="28px" viewBox="0 0 28 28" version="1.1" xmlns="http://www.w3.org/2000/svg" xmlns:xlink="http://www.w3.org/1999/xlink">
    <!-- Generator: Sketch 54.1 (76490) - https://sketchapp.com -->
    <title>Icons/Bahnset/icon_familienzone</title>
    <desc>Created with Sketch.</desc>
    <defs>
        <polygon id="path-1" points="4.54747351e-13 9.9475983e-14 17.9957338 9.9475983e-14 17.9957338 17.9991818 4.54747351e-13 17.9991818"></polygon>
    </defs>
    <g id="Icons/Bahnset/icon_familienzone" stroke="none" stroke-width="1" fill="none" fill-rule="evenodd">
        <rect id="Background" x="0" y="0" width="28" height="28"></rect>
        <g id="Familienzone" transform="translate(5.000000, 5.000000)">
            <g id="Group-3">
                <mask id="mask-2" fill="white">
                    <use xlink:href="#path-1"></use>
                </mask>
                <g id="Clip-2"></g>
                <path d="M8.99953247,1.34947403 C6.95588961,1.34947403 5.03462338,2.14533117 3.5895974,3.59041558 C2.14451299,5.03544156 1.34871429,6.95676623 1.34871429,9.00040909 C1.34871429,11.0440519 2.14451299,12.9653766 3.5895974,14.4104026 C5.03462338,15.8555455 6.95588961,16.6513442 8.99953247,16.6513442 C11.0432338,16.6513442 12.9646169,15.8555455 14.4097013,14.4104026 C15.8547857,12.9653766 16.6506429,11.0440519 16.6506429,9.00040909 C16.6506429,6.95670779 15.8547857,5.03544156 14.4097013,3.59041558 C12.9646169,2.14533117 11.0432338,1.34947403 8.99953247,1.34947403 Z M8.99953247,18 C6.59565584,18 4.33566234,17.0638831 2.63594805,15.3641104 C0.936175325,13.6642792 0,11.4042857 0,9.00040909 C0,6.59647403 0.936175325,4.33653896 2.63594805,2.63676623 C4.33566234,0.936935065 6.59565584,0.000818181818 8.99953247,0.000818181818 C11.403526,0.000818181818 13.6635779,0.936935065 15.3633506,2.63676623 C17.0631818,4.33653896 17.9992403,6.59647403 17.9992403,9.00040909 C17.9992403,11.4042857 17.0631818,13.6643377 15.3633506,15.3641104 C13.6635779,17.0638831 11.403526,18 8.99953247,18 L8.99953247,18 Z" id="Fill-1" fill="#67C6E5" mask="url(#mask-2)"></path>
            </g>
            <path d="M4.03007143,10.0320779 L13.9691688,10.0320779 C13.6187532,12.0491299 11.5837013,13.6647468 8.99953247,13.6647468 C6.41565584,13.6647468 4.38054545,12.0491299 4.03007143,10.0320779 Z M3.28587662,8.82122727 C2.97637013,8.85366234 2.74184416,9.11542208 2.74353896,9.42662338 C2.74353896,12.4834091 5.59840909,14.8755974 8.99953247,14.8755974 C12.4010649,14.8755974 15.2558182,12.4834091 15.2558182,9.42662338 C15.2558182,9.09227922 14.9847078,8.82134416 14.6504221,8.82122727 L3.34893506,8.82122727 C3.32801299,8.82011688 3.30691558,8.82011688 3.28587662,8.82122727 Z M12.4304026,5.39041558 C12.6605455,5.39041558 12.8340584,5.56404545 12.8340584,5.79412987 C12.8340584,6.02415584 12.6605455,6.19766883 12.4304026,6.19766883 C12.2002597,6.19766883 12.0269221,6.02415584 12.0269221,5.79412987 C12.0269221,5.56404545 12.2002597,5.39041558 12.4304026,5.39041558 Z M5.5688961,5.39041558 C5.79898052,5.39041558 5.97243506,5.56404545 5.97243506,5.79412987 C5.97243506,6.02415584 5.79898052,6.19766883 5.5688961,6.19766883 C5.33881169,6.19766883 5.16524026,6.02415584 5.16524026,5.79412987 C5.16524026,5.56404545 5.33881169,5.39041558 5.5688961,5.39041558 Z M12.4304026,4.17956494 C11.5460065,4.17956494 10.8160714,4.90961688 10.8160714,5.79412987 C10.8160714,6.67852597 11.5460065,7.40857792 12.4304026,7.40857792 C13.314974,7.40857792 14.0449675,6.67852597 14.0449675,5.79412987 C14.0449675,4.90961688 13.314974,4.17956494 12.4304026,4.17956494 Z M5.5688961,4.17956494 C4.68432468,4.17956494 3.95438961,4.90961688 3.95438961,5.79412987 C3.95438961,6.67852597 4.68432468,7.40857792 5.5688961,7.40857792 C6.45329221,7.40857792 7.18328571,6.67852597 7.18328571,5.79412987 C7.18328571,4.90961688 6.45329221,4.17956494 5.5688961,4.17956494 L5.5688961,4.17956494 Z" id="Fill-4" fill="#67C6E5"></path>
        </g>
    </g>
</svg>