<?xml version="1.0" encoding="UTF-8"?>
<svg width="28px" height="28px" viewBox="0 0 28 28" version="1.1" xmlns="http://www.w3.org/2000/svg" xmlns:xlink="http://www.w3.org/1999/xlink">
    <!-- Generator: Sketch 54.1 (76490) - https://sketchapp.com -->
    <title>Icons/Bahnset/icon_infopoint_defi</title>
    <desc>Created with Sketch.</desc>
    <g id="Icons/Bahnset/icon_infopoint_defi" stroke="none" stroke-width="1" fill="none" fill-rule="evenodd">
        <rect id="Background" x="0" y="0" width="28" height="28"></rect>
        <g id="Icon" transform="translate(4.588235, 6.000000)" fill="#707070">
            <g id="Infopoint">
                <g id="Group-16">
                    <path d="M4.68449198,5.11420753 C5.04059652,5.11420753 5.3695865,5.05214531 5.67206447,4.92741834 C5.97454244,4.78551882 6.24116894,4.59842836 6.47284778,4.36705079 C6.70392408,4.13567322 6.88227762,3.86904672 7.00640205,3.56656875 C7.14890412,3.24601441 7.21970325,2.90798624 7.21970325,2.55218297 C7.21970325,2.19668098 7.14890412,1.86738972 7.00640205,1.56521303 C6.88227762,1.26243378 6.70392408,0.995506013 6.47284778,0.764429716 C6.24116894,0.533052145 5.97454244,0.354999874 5.67206447,0.230574176 C5.3695865,0.0880721046 5.04059652,0.0172729783 4.68449198,0.0172729783 C4.32898998,0.0172729783 3.99096181,0.0880721046 3.67040747,0.230574176 C3.3679295,0.354999874 3.10130301,0.533052145 2.86992543,0.764429716 C2.63854786,0.995506013 2.45175868,1.26243378 2.30955788,1.56521303 C2.18483091,1.86738972 2.1227687,2.19668098 2.1227687,2.55218297 C2.1227687,3.26378951 2.37192137,3.86904672 2.86992543,4.36705079 C3.3679295,4.86505486 3.97318671,5.11420753 4.68449198,5.11420753" id="Fill-4"></path>
                    <polyline id="Fill-5" points="6.79310085 13.7613417 6.79310085 6.20873189 0.494690066 6.20873189 0.494690066 7.89013582 2.54997364 7.89013582 2.54997364 13.7613417 0.494690066 13.7613417 0.494690066 15.4424443 8.84778188 15.4424443 8.84778188 13.7613417 6.79310085 13.7613417"></polyline>
                </g>
            </g>
            <path d="M10.8184146,8.37054958 L10.8184146,6.53172973 L13.5906686,6.53172973 L13.5906686,3.7596443 L15.4289393,3.7596443 L15.4289393,6.53172973 L18.2011932,6.53172973 L18.2011932,8.37054958 L15.4289393,8.37054958 L15.4289393,11.142635 L13.5906686,11.142635 L13.5906686,8.37054958 L10.8184146,8.37054958 Z M13.0813683,11.7647059 L15.9382395,11.7647059 L15.9382395,8.87954562 L18.8235294,8.87954562 L18.8235294,5.99438535 L15.9382395,5.99438535 L15.9382395,3.1372549 L13.0813683,3.1372549 L13.0813683,5.99438535 L10.1960784,5.99438535 L10.1960784,8.87954562 L13.0813683,8.87954562 L13.0813683,11.7647059 L13.0813683,11.7647059 Z" id="Defi"></path>
        </g>
    </g>
</svg>