<?xml version="1.0" encoding="UTF-8"?>
<svg width="28px" height="28px" viewBox="0 0 28 28" version="1.1" xmlns="http://www.w3.org/2000/svg" xmlns:xlink="http://www.w3.org/1999/xlink">
    <!-- Generator: Sketch 54.1 (76490) - https://sketchapp.com -->
    <title>Icons/Bahnset/icon_radabstellplatz</title>
    <desc>Created with Sketch.</desc>
    <g id="Icons/Bahnset/icon_radabstellplatz" stroke="none" stroke-width="1" fill="none" fill-rule="evenodd">
        <g id="Fahrrad-Icon">
            <rect id="BAckground" x="0" y="0" width="28" height="28"></rect>
            <path d="M1.5,16.8973213 C1.5,14.2899768 3.59509283,12.1891742 6.19672746,12.1891742 C6.55766909,12.1891742 6.88312832,12.2250644 7.20817971,12.2976606 L8.00306698,9.97988515 L7.56912134,9.97988515 C6.62985742,9.97988515 5.90797416,9.14666058 5.90797416,8.20535743 C5.90797416,7.19105028 6.70245359,6.39412379 7.71349799,6.39412379 L9.80899866,6.39412379 C10.4240269,6.39412379 10.4240269,7.29953669 9.80899866,7.29953669 L7.71349799,7.29953669 C7.20817971,7.29953669 6.81094,7.69799993 6.81094,8.20535743 C6.81094,8.67600901 7.20817971,9.07447225 7.71349799,9.07447225 L16.384254,9.07447225 L16.9984665,7.29953669 L15.4095077,7.29953669 C14.8311854,7.29953669 14.8311854,6.39412379 15.4095077,6.39412379 L18.9858886,6.39412379 C19.6001011,6.39412379 19.6001011,7.29953669 18.9858886,7.29953669 L17.9377304,7.29953669 L17.1791412,9.43663741 L19.4916147,12.7324219 C20.1776078,12.3698489 20.9366048,12.1528761 21.7673823,12.1528761 C24.3682012,12.1528761 26.5,14.2536787 26.5,16.861431 C26.5,19.4687755 24.3682012,21.6058762 21.7673823,21.6058762 C19.4194264,21.6058762 17.43282,19.8672387 17.1077686,17.5853535 L14.1084864,17.5853535 C13.8919214,17.5853535 13.7108389,17.5131652 13.6386505,17.3324905 L8.79754641,10.486427 L8.03895723,12.5876374 C9.70132794,13.3115599 10.8934549,14.9780091 10.8934549,16.8973213 C10.8934549,19.5054814 8.79754641,21.6058762 6.19672746,21.6058762 C3.59509283,21.6058762 1.5,19.5054814 1.5,16.8973213 Z M18.0466247,17.5853535 C18.4075663,19.323991 19.9251525,20.6645731 21.7673823,20.6645731 C23.8632908,20.6645731 25.5607361,18.9622337 25.5607361,16.861431 C25.5607361,14.7969265 23.8632908,13.0945871 21.7673823,13.0945871 C21.1535776,13.0945871 20.5752553,13.2389638 20.069937,13.4930503 L22.454191,16.861431 C22.7066462,17.2231884 22.5259715,17.5853535 22.0924337,17.5853535 L18.0466247,17.5853535 Z M18.0103266,16.6799406 L21.2257659,16.6799406 L19.31094,14 C18.551943,14.6517342 18.0466247,15.6301511 18.0103266,16.6799406 Z M9.52024536,9.97988515 L13.8919214,16.1733988 L16.0592026,9.97988515 L9.52024536,9.97988515 Z M2.43926392,16.8973213 C2.43926392,18.9622337 4.13711703,20.6645731 6.19672746,20.6645731 C8.2555222,20.6645731 9.954191,18.9622337 9.954191,16.8973213 C9.954191,15.3764723 9.05040948,14.0362981 7.71349799,13.4567523 L6.3774022,17.2598943 C6.19672746,17.8390323 5.32965186,17.5494633 5.54621684,16.9699175 L6.88312832,13.2034814 C6.66656335,13.1671833 6.41329244,13.1308852 6.19672746,13.1308852 C4.13711703,13.1308852 2.43926392,14.8332246 2.43926392,16.8973213 Z M14.6501028,16.6799406 L17.0710627,16.6799406 C17.1077686,15.3038761 17.7578714,14.073004 18.7685079,13.2389638 L16.8177918,10.486427 L14.6501028,16.6799406 Z" id="Combined-Shape" fill="#707070"></path>
        </g>
    </g>
</svg>