<?xml version="1.0" encoding="UTF-8"?>
<svg width="28px" height="28px" viewBox="0 0 28 28" version="1.1" xmlns="http://www.w3.org/2000/svg" xmlns:xlink="http://www.w3.org/1999/xlink">
    <!-- Generator: Sketch 54.1 (76490) - https://sketchapp.com -->
    <title>Icons/Bahnset/icon_restaurant</title>
    <desc>Created with Sketch.</desc>
    <g id="Icons/Bahnset/icon_restaurant" stroke="none" stroke-width="1" fill="none" fill-rule="evenodd">
        <rect id="Rectangle" x="0" y="0" width="28" height="28"></rect>
        <g id="Bistro" transform="translate(8.000000, 5.000000)" fill="#707070">
            <path d="M9.73816338,0.791594366 C9.48687324,0.54 9.18143099,0.414050704 8.82183662,0.414050704 C8.46254648,0.414050704 8.15710423,0.54 7.90550986,0.791594366 C7.65421972,1.04258028 7.52857465,1.34832676 7.52857465,1.7076169 L7.52857465,10.7625803 L8.49844507,10.7625803 L8.49844507,16.6645521 C8.49844507,16.897893 8.57054648,17.0959437 8.71444507,17.2574873 C8.87598873,17.4013859 9.07343099,17.4725746 9.30707606,17.4725746 C9.5404169,17.4725746 9.72903662,17.4013859 9.87293521,17.2574873 C10.0344789,17.0959437 10.1154028,16.897893 10.1154028,16.6645521 L10.1154028,1.7076169 C10.1154028,1.34832676 9.99006197,1.04258028 9.73816338,0.791594366" id="Fill-4"></path>
            <path d="M5.15713803,0.414050704 C4.95908732,0.414050704 4.86051831,0.512619718 4.86051831,0.710670423 L4.86051831,4.61844507 L4.29465915,4.61844507 L4.29465915,0.710670423 C4.29465915,0.512619718 4.19548169,0.414050704 3.99834366,0.414050704 C3.80029296,0.414050704 3.70172394,0.512619718 3.70172394,0.710670423 L3.70172394,4.61844507 L3.10878873,4.61844507 L3.10878873,0.710670423 C3.10878873,0.512619718 3.01021972,0.414050704 2.81216901,0.414050704 C2.63237183,0.414050704 2.54292958,0.512619718 2.54292958,0.710670423 L2.54292958,4.61844507 L1.94999437,4.61844507 L1.94999437,0.710670423 C1.94999437,0.512619718 1.85112113,0.414050704 1.65337465,0.414050704 C1.45562817,0.414050704 1.35675493,0.512619718 1.35675493,0.710670423 L1.35675493,5.9387831 C1.35675493,6.28012394 1.47388169,6.56731268 1.70722254,6.80095775 C1.9588169,7.03460282 2.25543662,7.15142535 2.59677746,7.15142535 L2.59677746,16.6645521 C2.59677746,16.897893 2.66857465,17.0959437 2.81216901,17.2574873 C2.97371268,17.4013859 3.17176338,17.4725746 3.40510423,17.4725746 C3.6387493,17.4725746 3.82767324,17.4013859 3.97096338,17.2574873 C4.13250704,17.0959437 4.21373521,16.897893 4.21373521,16.6645521 L4.21373521,7.15142535 C4.57302535,7.15142535 4.86964507,7.03460282 5.10298592,6.80095775 C5.33663099,6.56731268 5.45345352,6.28012394 5.45345352,5.9387831 L5.45345352,0.710670423 C5.45345352,0.512619718 5.35427606,0.414050704 5.15713803,0.414050704" id="Fill-5"></path>
        </g>
    </g>
</svg>