<?xml version="1.0" encoding="UTF-8"?>
<svg width="28px" height="28px" viewBox="0 0 28 28" version="1.1" xmlns="http://www.w3.org/2000/svg" xmlns:xlink="http://www.w3.org/1999/xlink">
    <!-- Generator: Sketch 54.1 (76490) - https://sketchapp.com -->
    <title>Icons/Bahnset/icon_rollstuhlplatz</title>
    <desc>Created with Sketch.</desc>
    <g id="Icons/Bahnset/icon_rollstuhlplatz" stroke="none" stroke-width="1" fill="none" fill-rule="evenodd">
        <rect id="Background" x="0" y="0" width="28" height="28"></rect>
        <path d="M16.7523819,18.376964 C16.4381465,20.2710726 15.1088712,21.8149766 13.2827481,22.4070831 C12.7712756,22.5730943 12.2396445,22.6572857 11.7032703,22.6572857 C10.3459312,22.6572857 9.06724981,22.1315836 8.10280387,21.1770193 C6.99329578,20.0793692 6.44980678,18.559181 6.61186532,17.0069764 C6.7723428,15.467025 7.60674664,14.1021759 8.90163389,13.2555189 L8.76961547,11.7815767 C6.92847236,12.7199352 5.63911882,14.4970454 5.31934965,16.5385877 C4.99878996,18.5840827 5.68615532,20.6750331 7.15851644,22.1319789 C8.37632706,23.3363505 9.99019295,24 11.702875,24 C12.0930013,24 12.4858944,23.9640309 12.870487,23.8936738 C14.9278399,23.5158007 16.6757006,22.1612285 17.5583267,20.2671199 L16.7523819,18.376964 Z M22.7580342,20.4469654 L19.1536152,21.9766399 L16.4622576,15.6361983 L9.90797789,15.6361983 L9.14116431,6.87120299 C8.6348302,6.21269195 8.65656976,5.29014407 9.20045402,4.64230518 C9.54275328,4.23439198 10.0447395,4 10.5779516,4 C10.8625422,4 11.1467375,4.06917133 11.4001022,4.20000395 C12.1518958,4.58736339 12.5289783,5.43006779 12.3171164,6.24866104 C12.1115787,7.04116682 11.3961496,7.59493271 10.5771611,7.59493271 L10.5522594,7.59453744 L10.8854676,11.3989605 L15.5910942,11.3989605 L15.5910942,12.7412795 L11.0024659,12.7412795 L11.138437,14.2934841 L17.3508127,14.2934841 L19.8646964,20.2169213 L22.2339132,19.2109725 L22.7580342,20.4469654 L22.7580342,20.4469654 Z" id="Icon" fill="#707070"></path>
    </g>
</svg>