<?xml version="1.0" encoding="UTF-8"?>
<svg width="28px" height="28px" viewBox="0 0 28 28" version="1.1" xmlns="http://www.w3.org/2000/svg" xmlns:xlink="http://www.w3.org/1999/xlink">
    <!-- Generator: Sketch 54.1 (76490) - https://sketchapp.com -->
    <title>Icons/Bahnset/icon_ruhezone</title>
    <desc>Created with Sketch.</desc>
    <g id="Icons/Bahnset/icon_ruhezone" stroke="none" stroke-width="1" fill="none" fill-rule="evenodd">
        <rect id="Background" x="0" y="0" width="28" height="28"></rect>
        <g id="Ruhezone" transform="translate(5.000000, 5.000000)" fill="#7FC074">
            <path d="M3.58953896,3.59041558 C2.14445455,5.03544156 1.34865584,6.95670779 1.34865584,9.00040909 C1.34865584,11.0440519 2.14445455,12.9653766 3.58953896,14.4104026 C5.03462338,15.8555455 6.95600649,16.6513442 8.99970779,16.6513442 C11.0433506,16.6513442 12.9646169,15.8555455 14.4096429,14.4104026 C15.8547273,12.9653766 16.650526,11.0440519 16.650526,9.00040909 C16.650526,6.95676623 15.8547273,5.03544156 14.4096429,3.59041558 C12.9646169,2.14533117 11.0433506,1.34947403 8.99970779,1.34947403 C6.95600649,1.34947403 5.03462338,2.14533117 3.58953896,3.59041558 Z M2.63594805,15.3641104 C0.936116883,13.6643377 0,11.4042857 0,9.00040909 C0,6.59647403 0.936116883,4.33653896 2.63594805,2.63676623 C4.33566234,0.936935065 6.59571429,0.000818181818 8.99970779,0.000818181818 C11.4035844,0.000818181818 13.6635779,0.936935065 15.3633506,2.63676623 C17.0631234,4.33653896 17.9992403,6.59647403 17.9992403,9.00040909 C17.9992403,11.4042857 17.0631234,13.6642792 15.3633506,15.3641104 C13.6635779,17.0638831 11.4035844,18 8.99970779,18 C6.59571429,18 4.33566234,17.0638831 2.63594805,15.3641104 L2.63594805,15.3641104 Z" id="Fill-1"></path>
            <path d="M12.0958831,8.10058442 C13.1339221,8.10058442 13.9470195,7.59798701 13.9470195,6.67963636 C13.9470195,6.39876623 13.7193312,6.17107792 13.438461,6.17107792 C13.1575909,6.17107792 12.9298442,6.24553247 12.9298442,6.52634416 C12.9298442,6.87430519 12.5635909,7.08340909 12.0958831,7.08340909 C11.6281753,7.08340909 11.2618052,6.87430519 11.2618052,6.52634416 C11.2618052,6.24553247 11.0341753,6.17107792 10.7531299,6.17107792 C10.4722597,6.17107792 10.2446883,6.39876623 10.2446883,6.67963636 C10.2446883,7.59798701 11.0577273,8.10058442 12.0958831,8.10058442" id="Fill-4"></path>
            <path d="M5.81084416,8.10058442 C6.84882468,8.10058442 7.66198052,7.59798701 7.66198052,6.67963636 C7.66198052,6.39876623 7.43435065,6.17107792 7.15348052,6.17107792 C6.87261039,6.17107792 6.64492208,6.24553247 6.64492208,6.52634416 C6.64492208,6.87430519 6.27866883,7.08340909 5.81084416,7.08340909 C5.34325325,7.08340909 4.97670779,6.87430519 4.97670779,6.52634416 C4.97670779,6.24553247 4.74901948,6.17107792 4.46820779,6.17107792 C4.18727922,6.17107792 3.95959091,6.39876623 3.95959091,6.67963636 C3.95959091,7.59798701 4.77268831,8.10058442 5.81084416,8.10058442" id="Fill-5"></path>
            <path d="M9.0104026,13.9645519 C10.8094675,13.9645519 12.468039,13.3231558 13.9400649,12.0581299 C14.2065,11.8292143 14.2369481,11.4277792 14.0080909,11.1616364 C13.7794091,10.8953182 13.3780325,10.8648701 13.1116558,11.0937273 C11.8764935,12.1549091 10.4967468,12.6929805 9.0104026,12.6929805 C7.5218961,12.6929805 6.14027922,12.1533896 4.90418182,11.0895779 C4.6380974,10.8603701 4.2368961,10.8904091 4.00786364,11.1566104 C3.77877273,11.4226364 3.80875325,11.8241299 4.07483766,12.0531623 C5.54814935,13.321461 7.20876623,13.9645519 9.0104026,13.9645519" id="Fill-6"></path>
        </g>
    </g>
</svg>